<?xml version="1.0" encoding="utf-8"?>
<svg xmlns="http://www.w3.org/2000/svg" xmlns:xlink="http://www.w3.org/1999/xlink" version="1.1" id="Layer_1" x="0px" y="0px" viewBox="0 0 139 50" style="enable-background:new 0 0 139 50;" xml:space="preserve">
<style type="text/css">
	.st2{fill:#1B5ECE;}
</style>
<g>
	
	
	<g>
		<rect x="114" y="2" class="st2" width="9.6" height="43.1"/>
		<circle class="st2" cx="133.2" cy="40.3" r="4.8"/>
		<g>
			<path class="st2" d="M67.5,46C55.1,46,45,35.9,45,23.5S55.1,1,67.5,1c4.4,0,8.7,1.3,12.4,3.7l-5.4,8.2c-2.1-1.4-4.5-2.1-7-2.1     c-7,0-12.7,5.7-12.7,12.7s5.7,12.7,12.7,12.7c2.5,0,5-0.7,7.1-2.2l5.5,8.1C76.4,44.7,72,46,67.5,46z"/>
		</g>
		<g>
			<path class="st2" d="M90.6,26.6l7.5-1.2c1.7-0.3,2.3-1.1,2.3-2.2c0-1.9-1.6-3.5-4.7-3.5c-3.4,0-5.3,2.3-5.5,4.7l-8.5-1.7     c0.4-4.6,4.6-10.6,14-10.6c10.4,0,14.2,5.8,14.2,12.4V45l-8.8,0c0,0,0-1.4,0-3.6c-1.7,2.7-4.8,4.5-9,4.5c-7,0-11.1-4.6-11.1-9.7     C81.2,30.6,85.4,27.3,90.6,26.6z M100.5,32.5v-1.4l-6,1c-2.1,0.3-3.6,1.3-3.6,3.5c0,1.7,1.1,3.3,3.8,3.3     C97.5,38.9,100.5,37.4,100.5,32.5z"/>
		</g>
	</g>
</g>
</svg>