<?xml version="1.0" encoding="UTF-8" standalone="no"?>
<!-- Created with Inkscape (http://www.inkscape.org/) -->

<svg
   xmlns:dc="http://purl.org/dc/elements/1.1/"
   xmlns:cc="http://creativecommons.org/ns#"
   xmlns:rdf="http://www.w3.org/1999/02/22-rdf-syntax-ns#"
   xmlns:svg="http://www.w3.org/2000/svg"
   xmlns="http://www.w3.org/2000/svg"
   xmlns:sodipodi="http://sodipodi.sourceforge.net/DTD/sodipodi-0.dtd"
   xmlns:inkscape="http://www.inkscape.org/namespaces/inkscape"
   id="svg2"
   version="1.1"
   inkscape:version="0.48.2 r9819"
   width="310.81332"
   height="57.804329"
   xml:space="preserve"
   sodipodi:docname="banq_poalim_new.ai"><metadata
     id="metadata8"><rdf:RDF><cc:Work
         rdf:about=""><dc:format>image/svg+xml</dc:format><dc:type
           rdf:resource="http://purl.org/dc/dcmitype/StillImage" /><dc:title></dc:title></cc:Work></rdf:RDF></metadata><defs
     id="defs6"><clipPath
       clipPathUnits="userSpaceOnUse"
       id="clipPath16"><path
         d="m 0,283.465 283.465,0 L 283.465,0 0,0 0,283.465 z"
         id="path18"
         inkscape:connector-curvature="0" /></clipPath></defs><sodipodi:namedview
     pagecolor="#ffffff"
     bordercolor="#666666"
     borderopacity="1"
     objecttolerance="10"
     gridtolerance="10"
     guidetolerance="10"
     inkscape:pageopacity="0"
     inkscape:pageshadow="2"
     inkscape:window-width="1280"
     inkscape:window-height="962"
     id="namedview4"
     showgrid="false"
     inkscape:zoom="3.6999701"
     inkscape:cx="155.40666"
     inkscape:cy="28.902164"
     inkscape:window-x="-8"
     inkscape:window-y="-8"
     inkscape:window-maximized="1"
     inkscape:current-layer="g10"
     fit-margin-top="0"
     fit-margin-left="0"
     fit-margin-right="0"
     fit-margin-bottom="0" /><g
     id="g10"
     inkscape:groupmode="layer"
     inkscape:label="banq_poalim_new"
     transform="matrix(1.25,0,0,-1.25,-20.6405,273.84901)"><path
       inkscape:connector-curvature="0"
       id="path22"
       style="fill:#00356c;fill-opacity:1;fill-rule:nonzero;stroke:none"
       d="m 191.0596,186.7769 -12.735,0 0.506,2.876 7.411,0 2.339,13.229 c 0.307,1.74 -1.194,2.27 -2.716,2.27 -0.626,0 -1.27,-0.064 -2.125,-0.197 l -0.333,1.872 c 2.181,0.781 3.887,1.103 6.071,1.104 2.3,0.001 3.935,-0.472 4.981,-1.277 1.014,-0.778 1.408,-1.866 1.138,-3.383 l -2.629,-14.806 c -0.209,-0.983 -0.621,-1.688 -1.908,-1.688" /><path
       inkscape:connector-curvature="0"
       id="path26"
       style="fill:#00356c;fill-opacity:1;fill-rule:nonzero;stroke:none"
       d="m 215.1816,186.7744 -20.479,0 0.512,2.876 9.968,0 2.349,13.232 c 0.111,0.617 0.171,1.466 -0.675,1.797 -2.098,0.821 -5.935,0.056 -8.475,-0.514 l -0.336,1.917 c 1.463,0.518 5.565,1.849 10.408,1.849 2.302,0 3.936,-0.473 4.982,-1.277 1.015,-0.779 1.392,-1.865 1.121,-3.384 l -2.417,-13.62 3.549,0 -0.507,-2.876" /><path
       inkscape:connector-curvature="0"
       id="path30"
       style="fill:#00356c;fill-opacity:1;fill-rule:nonzero;stroke:none"
       d="m 177.8545,191.4766 c -0.516,-1.61 -1.448,-2.889 -3.001,-3.835 -1.55,-0.947 -3.532,-1.45 -5.964,-1.45 -2.298,0 -3.585,0.768 -4.148,1.214 l -1.45,-8.192 -6.834,0 3.391,19.209 6.837,0 -1.636,-9.269 c 0.245,-0.187 1.025,-0.664 2.622,-0.664 1.553,0 2.564,0.735 3.038,2.214 0.118,0.365 2.349,13.316 2.349,13.316 l -12.223,-0.001 0.585,3.318 19.231,-0.001 c 0,0 -2.535,-15.041 -2.797,-15.859" /><path
       inkscape:connector-curvature="0"
       id="path34"
       style="fill:#c00000;fill-opacity:1;fill-rule:nonzero;stroke:none"
       d="m 237.8428,216.5366 c 1.957,2.387 3.432,3.5 6.855,1.527 l 16.95,-9.636 c 3.923,-2.276 4.33,-6.179 2.367,-8.941 l -16.67,-24.152 c -2.918,-4.209 -6.007,-2.341 -8.119,0.068 l -16.09,18.154 c -1.578,1.832 -1.973,3.197 -0.331,5.179 l 15.038,17.801" /><path
       inkscape:connector-curvature="0"
       id="path38"
       style="fill:#00356c;fill-opacity:1;fill-rule:evenodd;stroke:none"
       d="m 123.4824,191.9692 c -0.309,-1.788 -1.301,-3.188 -3.002,-4.209 -1.708,-1.026 -3.902,-1.529 -6.599,-1.529 -6.14,0 -9.765,0.946 -9.765,0.946 l 0.417,2.669 c 0,0 2.958,-1.043 7.464,-1.043 1.178,0 2.469,0.072 3.211,0.551 0.746,0.483 1.219,1.14 1.366,1.984 l 2.205,12.479 c 0,0 0.918,1.988 -2.437,1.988 -2.524,0 -2.516,-0.75 -3.1,-4.004 -1.182,-6.589 -0.342,-6.341 1.29,-6.469 l -0.297,-2.125 -1.581,-0.303 c -1.025,-0.197 -8.172,-1.098 -6.067,8.438 l 1.02,5.506 c 0,0 3.003,1.083 9.238,1.083 5.863,0 9.162,-1.675 8.422,-5.861 l -1.785,-10.101" /><path
       inkscape:connector-curvature="0"
       id="path42"
       style="fill:#00356c;fill-opacity:1;fill-rule:nonzero;stroke:none"
       d="m 66.1724,191.9434 c -0.313,-1.784 -1.324,-3.149 -3.009,-4.213 -2.748,-1.736 -6.441,-1.894 -10.324,-0.809 l 0.443,2.475 c 2.506,-0.815 5.497,-0.387 5.916,2.144 l 2.203,12.48 -10.651,0 1.915,10.869 6.924,0 -1.321,-7.554 10.601,0 -2.697,-15.392" /><path
       inkscape:connector-curvature="0"
       id="path46"
       style="fill:#00356c;fill-opacity:1;fill-rule:nonzero;stroke:none"
       d="m 144.9014,186.7749 -6.788,0 2.79,15.826 c 0.15,0.85 -0.089,1.578 -0.735,2.12 -0.488,0.409 -2.231,0.68 -4.007,0.746 -1.409,0.052 -2.259,-0.012 -3.78,-0.268 -1.019,-0.172 -1.599,-0.328 -2.858,-0.706 l 0.416,2.363 c 1.682,0.405 2.528,0.58 4.113,0.785 2.283,0.295 4.125,0.259 5.684,0.259 2.723,0 5.179,-0.533 6.474,-1.519 1.262,-0.961 1.746,-2.284 1.431,-4.066 l -2.74,-15.54" /><path
       inkscape:connector-curvature="0"
       id="path50"
       style="fill:#00356c;fill-opacity:1;fill-rule:nonzero;stroke:none"
       d="m 45.3252,196.9126 -5.215,0.001 1.838,10.428 6.892,0 -1.554,-8.753 c -0.19,-0.903 -0.474,-1.676 -1.961,-1.676" /><path
       inkscape:connector-curvature="0"
       id="path54"
       style="fill:#00356c;fill-opacity:1;fill-rule:nonzero;stroke:none"
       d="m 98.6836,186.7744 -5.33,0 3.624,20.561 6.935,0 -3.322,-18.875 c -0.201,-1.032 -0.72,-1.686 -1.907,-1.686" /><path
       inkscape:connector-curvature="0"
       id="path58"
       style="fill:#00356c;fill-opacity:1;fill-rule:nonzero;stroke:none"
       d="m 90.4888,193.6226 c -0.488,-2.772 -2.117,-7.392 -13.474,-7.392 -5.826,0 -8.822,0.671 -10.124,1.059 l 0.472,2.667 c 0.984,-0.18 2.247,-0.598 4.409,-0.68 l 3.189,18.058 6.704,0 -3.239,-18.339 c 1.001,0.002 4.259,0.061 4.603,2.009 l 2.884,16.33 6.934,0 -2.358,-13.712" /><path
       inkscape:connector-curvature="0"
       id="path62"
       style="fill:#00356c;fill-opacity:1;fill-rule:evenodd;stroke:none"
       d="m 33.9624,186.7744 -17.45,0 3.555,20.099 c 1.602,0.4 2.551,0.596 4.181,0.799 2.189,0.271 4.126,0.259 5.685,0.259 2.741,0 5.847,-0.565 7.135,-1.545 1.264,-0.961 1.757,-2.285 1.44,-4.066 l -2.458,-13.871 c -0.239,-1.078 -0.633,-1.675 -2.088,-1.675 m -2.962,17.934 c -0.627,0.526 -1.579,0.841 -4.403,0.518 l -2.813,-15.874 5.604,0 2.347,13.235 c 0.15,0.851 -0.089,1.579 -0.735,2.121" /><path
       inkscape:connector-curvature="0"
       id="path66"
       style="fill:#00356c;fill-opacity:1;fill-rule:nonzero;stroke:none"
       d="m 131.501,186.7754 -5.036,0 2.068,11.733 6.662,0 -1.764,-10.047 c -0.214,-1.089 -0.722,-1.686 -1.93,-1.686" /></g></svg>