<?xml version="1.0" encoding="utf-8"?>
<!-- Generator: Adobe Illustrator 24.1.0, SVG Export Plug-In . SVG Version: 6.00 Build 0)  -->
<svg version="1.1" id="Layer_1" xmlns="http://www.w3.org/2000/svg" xmlns:xlink="http://www.w3.org/1999/xlink" x="0px" y="0px"
	 viewBox="0 0 91 60" style="enable-background:new 0 0 91 60;" xml:space="preserve">
<style type="text/css">
	.st0{fill:#E2231A;}
	.st1{fill:#00499e;}
</style>
<path id="Path" class="st0" d="M29.1,59.1c-1.8,0-3.4-0.7-4.7-1.9L2.2,34.6c-2.6-2.6-2.6-6.8,0-9.4L24.5,2.7
	c1.2-1.2,2.9-1.9,4.7-1.9s3.4,0.7,4.7,1.9l10.8,10.9L33.9,24.5c-2.5,2.6-2.9,6.6-1,9.6l0.3,0.5l0.5-0.5l15.7-15.8l3.3,3.3l-15.9,16
	L36.5,38l0.4,0.4l4.2,4.2l0.4,0.4l0.4-0.4l15.6-15.7c1.3,2.6,0.8,5.7-1.2,7.7L45,45.7l-0.5,0.5L33.8,57.1
	C32.6,58.3,30.9,59,29.1,59.1"/>
<path id="Path_1_" class="st1" d="M61.5,59c-1.8,0-3.4-0.7-4.7-1.9L46.1,46.3l10.7-10.9c2.5-2.6,2.9-6.6,1-9.6l-0.3-0.5L57,25.7
	L41.4,41.5L37.9,38l15.8-15.8l0.4-0.4l-0.4-0.4l-4-4L49.4,17L49,17.4L33.5,33c-1.3-2.6-0.8-5.7,1.2-7.7l11.1-11.2l0.4-0.4l0,0
	L56.9,2.8c1.2-1.2,2.9-1.9,4.7-1.9s3.4,0.7,4.7,1.9l22.3,22.5c2.6,2.6,2.6,6.8,0,9.4L66.2,57.2c-1.2,1.2-2.9,1.9-4.7,1.9"/>
</svg>
