<?xml version="1.0" encoding="UTF-8"?>
<svg width="202px" height="121px" viewBox="0 0 202 121" version="1.1" xmlns="http://www.w3.org/2000/svg" xmlns:xlink="http://www.w3.org/1999/xlink">
    <!-- Generator: Sketch 63.1 (92452) - https://sketch.com -->
    <title>hov 1</title>
    <desc>Created with Sketch.</desc>
    <defs>
        <polygon id="path-1" points="7.69819466e-05 0.342630137 149.890344 0.342630137 149.890344 51.2876712 7.69819466e-05 51.2876712"></polygon>
        <polygon id="path-3" points="0.386370632 0.342630137 17.171343 0.342630137 17.171343 51.1815595 0.386370632 51.1815595"></polygon>
        <polygon id="path-5" points="0.35906868 0.426313939 17.1661373 0.426313939 17.1661373 30.474724 0.35906868 30.474724"></polygon>
    </defs>
    <g id="desktop" stroke="none" stroke-width="1" fill="none" fill-rule="evenodd">
        <g id="hov-1">
            <g id="Group-24-Copy-2" transform="translate(59.000000, 0.000000)" fill="#FFFFFF">
                <g id="Group-5-Copy-28">
                    <path d="M98.1443366,121 C101.943018,115.926454 105.912539,110.935567 109.547559,105.71238 C117.854123,93.7795719 124.903075,81.1997436 129.072149,67.1790854 C133.215382,53.2524873 132.310934,39.8289683 124.918867,27.1522297 C119.681683,18.1680632 111.901995,12.2565273 101.464953,10.6290023 C88.5758517,8.6195361 77.4525777,12.7125764 68.1769617,21.6468625 C65.1937191,24.5213967 62.6670074,27.861956 60.1302463,30.7635682 C57.9925908,27.4828652 55.813302,23.7518139 53.2535708,20.2958171 C48.9595965,14.4997186 43.7525605,9.60431703 37.1256849,6.49605767 C27.6203678,2.04102844 18.1351495,3.14979771 8.87819665,7.28131714 C5.84757825,8.63378763 3.12274939,10.6660562 0.366336634,12.3235095 C3.43858835,7.78867172 7.6191477,4.26996821 12.9998951,2.41014314 C26.3483981,-2.2002278 38.7924532,-0.149432193 50.072211,8.16063673 C53.9096544,10.9881409 57.2618543,14.4598143 60.8896955,17.6835111 C63.1134889,15.702548 65.5569339,13.3082905 68.2243375,11.1919378 C76.6558022,4.50654366 86.1438917,0.195454907 97.0977612,0.510413787 C107.875048,0.822522361 117.373187,5.02672461 125.705593,11.6921666 C135.671748,19.6616239 140.705072,30.2519381 141.971299,42.7562332 C143.63089,59.1540472 138.459744,73.7262397 129.765559,87.3008249 C121.434589,100.309624 110.754925,111.203496 98.5850755,120.704993 C98.4271561,120.827556 98.2534446,120.927317 98.1443366,121" id="Fill-1-Copy-6"></path>
                </g>
            </g>
            <g id="Group-22" transform="translate(0.000000, 57.000000)">
                <g id="Group-3" transform="translate(0.000000, 0.369841)">
                    <mask id="mask-2" fill="white">
                        <use xlink:href="#path-1"></use>
                    </mask>
                    <g id="Clip-2"></g>
                    <path d="M133.136362,14.2104603 C133.136362,16.9372548 132.981635,19.6761589 133.20024,22.3851452 C133.313091,23.7813096 133.701327,25.5571452 134.641753,26.4048164 C137.102474,28.6222959 139.707275,30.7101315 143.490979,30.4536932 C147.859522,30.1573644 149.861741,28.3402137 149.880905,23.9380219 C149.900068,19.5522137 149.883744,15.1664055 149.889422,10.7798849 C149.89581,4.21078904 145.274594,-0.0788547945 138.776786,0.473912329 C134.950496,0.798734247 133.186045,2.68783014 133.143459,6.56503562 C133.115779,9.11303562 133.138491,11.6624603 133.136362,14.2104603 M109.008237,25.0172 C109.008237,31.0634466 108.906742,37.1118301 109.080632,43.1530904 C109.123927,44.623337 109.661921,46.5544603 110.687517,47.4277753 C113.300836,49.6538027 116.131339,51.595611 120.034282,51.1048164 C123.783919,50.6325425 125.752779,48.837474 125.75207,45.0728164 C125.75065,33.3963233 125.764845,21.7198301 125.763526,10.0426247 C125.762716,7.75035068 125.097675,5.73446027 123.252312,4.22432329 C122.896725,3.93369315 122.585142,3.56613151 122.325372,3.18361096 C120.269211,0.156926027 116.495443,-0.0674575342 113.164563,0.749583562 C110.374515,1.43341918 109.023142,3.79763836 109.014624,7.23462466 C108.99759,13.1619123 109.009656,19.0899123 109.008237,25.0172 M40.8298698,33.2282137 C40.8028991,33.2282137 40.7752186,33.2275014 40.7482479,33.226789 C40.7482479,28.135063 40.8469039,23.0397753 40.7255358,17.949474 C40.5409994,10.1943507 33.0289513,1.69341918 24.2052756,1.27528219 C18.1354499,0.988213699 12.0521387,0.914131507 5.97450566,0.837912329 C1.58963854,0.781638356 -0.20320289,2.69067945 0.0182407065,7.04799452 C0.130382015,9.25051507 0.840846889,11.1182411 3.22633384,11.8405425 C3.54785291,11.9374192 3.86724271,12.168926 4.09649362,12.4210904 C5.3208212,13.7723781 6.88299221,14.047337 8.60556788,14.0288164 C12.3864334,13.988926 16.1680087,14.0024603 19.9495839,14.0259671 C22.3883025,14.0416384 23.4046719,14.883611 23.7630982,17.3119397 C23.9880906,18.831337 24.1122977,20.3792274 24.1215245,21.9142959 C24.1598513,28.2005973 24.2286976,34.4883233 24.1023611,40.771063 C24.0285466,44.4580767 24.7390115,47.2290356 28.377926,49.3133096 C31.2361098,50.9509534 33.8444599,51.5856384 36.9070532,50.9516658 C39.168333,50.4836658 40.6935968,49.0568712 40.7808967,46.7225699 C40.9491086,42.2306247 40.8298698,37.7272822 40.8298698,33.2282137 M56.9697012,13.7104055 C53.4649304,19.5970904 54.312378,19.9767616 54.2186903,25.5656932 C54.176105,28.0574192 54.2201098,30.5498575 54.2016562,33.0422959 C54.1739758,36.8518301 53.7765129,37.2507342 49.9253816,37.4288164 C47.6009336,37.5363781 46.3354402,38.8171452 45.8343531,41.0624055 C44.5631817,46.7610356 49.5364358,49.6751726 53.7516715,50.5392274 C55.454374,50.8875562 57.29193,50.6702959 59.05993,50.5719945 C65.5243796,50.2158301 68.5947802,48.0980767 70.1881805,42.6209808 C70.7247554,40.7746247 70.850382,38.7615836 70.8759332,36.8212 C70.9568453,30.6517205 70.8972259,24.4801041 70.9021941,18.3092 C70.9029039,17.6004329 70.9476185,16.8881041 71.0200135,16.1821863 C71.1562865,14.8593918 71.9654073,14.092926 73.2309007,14.0672822 C75.9464238,14.0117205 78.6662054,14.049474 81.3824382,14.1306795 C82.5840536,14.1662959 83.3591062,14.8508438 83.4967987,16.1152274 C83.675657,17.7614192 83.9808517,19.4090356 83.9936273,21.0573644 C84.0482784,28.2362137 83.9361371,35.4172 84.0795077,42.5946247 C84.1107369,44.155337 84.4805193,46.1975836 85.4997277,47.1492548 C87.6446076,49.151611 90.0293848,51.2195014 93.2651584,51.283611 C97.9445739,51.3762137 100.930514,49.9772 100.909221,44.5342959 C100.88438,38.1261863 100.956775,31.7173644 100.878702,25.3106795 C100.839665,22.1757205 100.774368,19.0115562 100.330771,15.9172 C99.5166815,10.2321041 95.9870693,6.29933699 91.3154611,3.3802137 C87.8930219,1.24109041 83.9155542,0.921967123 80.0189986,0.864980822 C71.3301765,0.73889863 62.6385153,0.817967123 53.9482736,0.83150137 C51.5202014,0.835063014 50.1305008,1.67489863 49.5492114,3.40158356 C48.7337028,5.82350137 49.4455872,9.1002137 51.1866165,10.2492 C53.0220432,11.4601589 54.9589649,12.5165425 56.9697012,13.7104055" id="Fill-1" fill="#FFFFFF" mask="url(#mask-2)"></path>
                </g>
                <path d="M67.3925261,2.54173151 C62.9586858,2.54173151 58.5255554,2.52819726 54.0924249,2.54743014 C51.9723864,2.55669041 51.0873217,3.20063562 50.8552318,4.79767671 C50.4215714,7.78803288 51.1455216,9.40644384 53.240009,9.97844384 C54.6034486,10.3517041 56.0364442,10.5126904 57.3565887,10.994937 C59.448237,11.7578411 59.8932535,13.389074 58.3956702,15.0224438 C56.2926658,17.3154301 55.5573595,19.9688548 55.6254959,23.0062247 C55.7071178,26.6825534 55.6787276,30.3624438 55.639691,34.0401973 C55.5985253,37.9608548 54.4068464,39.1461699 50.5528761,39.2401973 C50.257618,39.2473205 49.8814478,39.1376219 49.6812968,39.278663 C48.9183101,39.8171836 47.9097481,40.2972932 47.5626778,41.0601973 C47.1517296,41.9627178 47.1978637,43.1458959 47.280905,44.1887452 C47.4590536,46.4161973 48.6478934,47.4868274 50.8523928,47.5267178 C52.8617095,47.5637589 54.8830921,47.6649096 56.8789235,47.4953753 C60.0678532,47.2254027 63.0630198,46.3727452 65.0233635,43.5163068 C66.6373466,41.1656219 66.9758998,38.4573479 66.9900949,35.7063342 C67.0220339,29.3580603 66.9773193,23.0097863 67.0064193,16.6615123 C67.0113876,15.6058411 67.1923751,14.5451836 67.3570383,13.4966356 C67.5806112,12.0840877 68.4607075,11.1730192 69.8617641,11.1780055 C73.3814397,11.1908274 76.925247,11.1260055 80.4087252,11.5277589 C82.8978364,11.8155397 84.4479415,13.6932384 84.9007653,16.1977863 C85.2158966,17.9387178 85.4082402,19.7252384 85.4238548,21.4932384 C85.487023,28.7255123 85.4352109,35.9584986 85.481345,43.1907726 C85.5012181,46.2815671 86.5332021,47.702663 89.4900419,48.0866082 C93.6896629,48.6308274 97.3669042,47.7375671 96.9658926,42.1785534 C96.7146393,38.6966904 96.955956,35.1806356 96.9318243,31.6809644 C96.8934976,26.2252384 97.0695168,20.7517041 96.6947661,15.3187726 C96.2064546,8.23038904 92.2772503,4.05756712 85.2449965,3.27115616 C79.3341559,2.61011507 67.3974943,2.43844384 67.3925261,2.54173151 M56.9690624,14.0800329 C54.9583261,12.8861699 53.0221142,11.8297863 51.1866874,10.6195397 C49.4456581,9.47055342 48.7337737,6.19312877 49.5492824,3.77192329 C50.1305718,2.04523836 51.5202723,1.20469041 53.9483446,1.20112877 C62.6385863,1.18830685 71.3302475,1.10852603 80.0190696,1.23460822 C83.9156252,1.29159452 87.8930929,1.61071781 91.3155321,3.7498411 C95.9871403,6.66896438 99.5167525,10.6017315 100.330842,16.2875397 C100.774439,19.3818959 100.839736,22.5453479 100.878773,25.6803068 C100.956846,32.0877041 100.884451,38.496526 100.909292,44.9046356 C100.930585,50.3468274 97.9446449,51.7458411 93.2652294,51.6532384 C90.0294558,51.5891288 87.6446786,49.5212384 85.4997986,47.5195945 C84.4805903,46.5679233 84.1108079,44.5249644 84.0795786,42.9642521 C83.9362081,35.7875397 84.0483494,28.6065534 83.9936983,21.4277041 C83.9809227,19.778663 83.675728,18.1317589 83.4961599,16.4848548 C83.3591772,15.2211836 82.5841246,14.5359233 81.3825092,14.5003068 C78.6662764,14.4198137 75.9464947,14.3813479 73.2309717,14.4369096 C71.9654783,14.4625534 71.1563574,15.2297315 71.0200845,16.5518137 C70.9476894,17.2577315 70.9029749,17.9700603 70.9022651,18.6788274 C70.8965871,24.8497315 70.9562065,31.0213479 70.8760042,37.1915397 C70.850453,39.131211 70.7248263,41.1442521 70.1875417,42.9906082 C68.5948512,48.4684164 65.5244506,50.5854575 59.060001,50.9416219 C57.292001,51.0399233 55.454445,51.2578959 53.7517424,50.9088548 C49.5365068,50.0455123 44.5632527,47.1313753 45.8344241,41.4327452 C46.3355112,39.1867726 47.6010046,37.9060055 49.9254526,37.7984438 C53.7765839,37.6203616 54.1740467,37.2221699 54.2017272,33.4119233 C54.2194711,30.9201973 54.176176,28.4277589 54.2180515,25.9360329 C54.312449,20.346389 53.4650014,19.9674301 56.9690624,14.0800329" id="Fill-4" fill="#0C375A"></path>
                <path d="M36.9146476,30.4108822 C36.9146476,25.3740055 37.2170033,20.3129096 36.8287672,15.306663 C36.4433702,10.3374575 34.3602389,5.93241644 29.1485071,4.42227945 C25.5152707,3.36945753 21.6648491,2.87795068 17.8790153,2.61296438 C13.6446163,2.31592329 9.37118073,2.49899178 5.11690855,2.58518356 C2.52985114,2.63718356 1.27926263,4.25060822 1.34385034,7.14123836 C1.40205026,9.72058082 2.43190494,10.7677041 5.04735255,10.7926356 C8.47546977,10.8246904 11.906426,10.7271014 15.3302847,10.8417863 C17.0244702,10.8987726 18.7967287,11.0504986 20.3745143,11.6089644 C24.1355067,12.9403068 25.3946123,16.1130192 25.4407464,19.782937 C25.5365633,27.3151014 25.5145609,34.8494027 25.4755244,42.3829918 C25.4549415,46.3250192 27.088088,48.1507178 30.9172169,48.2240877 C35.4255814,48.3095671 37.1637717,46.7381699 37.1815155,42.5126356 C37.1978399,38.4787178 37.0047865,30.4108822 36.9146476,30.4108822 M40.8303666,33.5985534 C40.8303666,38.0969096 40.9496055,42.6002521 40.7806837,47.0921973 C40.6933839,49.4264986 39.1688299,50.8532932 36.9068403,51.3212932 C33.844247,51.9552658 31.2358969,51.3205808 28.3784228,49.6836493 C24.7395083,47.598663 24.0290434,44.8277041 24.1021482,41.1406904 C24.2284846,34.8579507 24.1596384,28.5702247 24.1220214,22.2846356 C24.1120848,20.7495671 23.9878776,19.2016767 23.763595,17.6822795 C23.4044589,15.2539507 22.3880896,14.4112658 19.9500808,14.3963068 C16.1685055,14.3720877 12.3862205,14.3592658 8.60535496,14.3984438 C6.88277929,14.4169644 5.32060827,14.1420055 4.09699045,12.7914301 C3.86702979,12.5385534 3.54763998,12.3070466 3.22612092,12.2101699 C0.841343717,11.4885808 0.130169089,9.62014247 0.0187375351,7.41833425 C-0.203415817,3.06030685 1.58942561,1.15197808 5.97429273,1.20753973 C12.0526356,1.2837589 18.1352369,1.3578411 24.2057725,1.64490959 C33.0287383,2.06304658 40.5407865,10.5646904 40.7253228,18.3191014 C40.846691,23.4094027 40.8033959,33.5985534 40.8303666,33.5985534" id="Fill-6" fill="#0C375A"></path>
                <g id="Group-10" transform="translate(108.592533, 0.369841)">
                    <mask id="mask-4" fill="white">
                        <use xlink:href="#path-3"></use>
                    </mask>
                    <g id="Clip-9"></g>
                    <path d="M13.1448067,25.1083068 L13.1561628,25.1083068 C13.1561628,18.9388274 13.1859725,12.7693479 13.1405482,6.60058082 C13.1235141,4.21997808 12.039718,2.78606027 10.054533,2.18058082 C7.16015159,1.29943014 3.85979029,1.96688219 2.7114065,3.73844384 C2.36930454,4.26627945 2.14360241,4.92090959 2.04778547,5.54633425 C1.89589787,6.53718356 1.84408575,7.55225205 1.84337599,8.55663562 C1.83414918,19.886937 1.84124673,31.216526 1.84692477,42.5468274 C1.84905403,45.982389 2.76037961,47.4049096 6.09977744,47.7019507 C10.5073567,48.0937315 13.4847794,47.191211 13.2122335,42.0111562 C12.9162656,36.3915945 13.1448067,30.7435397 13.1448067,25.1083068 M0.41605845,25.0171288 C0.416768206,19.0898411 0.405412124,13.1618411 0.421736491,7.23455342 C0.430963308,3.79756712 1.7816273,1.43334795 4.57238442,0.749512329 C7.90255544,-0.0675287671 11.6770332,0.157567123 13.732484,3.18353973 C13.9922544,3.56606027 14.3045466,3.93362192 14.6601339,4.22496438 C16.5047875,5.73438904 17.1705378,7.75027945 17.171343,10.0432658 C17.172667,21.7197589 17.1577622,33.3962521 17.1591817,45.0727452 C17.1598914,48.8381151 15.1917405,50.6324712 11.4421042,51.1047452 C7.53916082,51.5962521 4.70794765,49.6537315 2.09533906,47.4277041 C1.06903316,46.554389 0.531748535,44.6232658 0.488453473,43.1530192 C0.314563468,37.1124712 0.415348695,31.0633753 0.41605845,25.0171288" id="Fill-8" fill="#0C375A" mask="url(#mask-4)"></path>
                </g>
                <g id="Group-13" transform="translate(132.724207, 0.369841)">
                    <mask id="mask-6" fill="white">
                        <use xlink:href="#path-5"></use>
                    </mask>
                    <g id="Clip-12"></g>
                    <path d="M13.1607762,14.4400438 L13.1096739,14.4400438 C13.1096739,11.5964274 13.1742616,8.74996164 13.0876715,5.90848219 C13.0237935,3.78075616 11.5453736,2.25922192 9.44946672,2.01418082 C8.45793882,1.89807123 7.44085974,1.84393425 6.44791232,1.92229041 C3.01624633,2.19083836 1.89270397,3.40179726 1.86786255,6.88864658 C1.83237479,11.6883178 1.85579671,16.4887014 1.85295769,21.2883726 C1.85011867,26.014674 4.67849281,28.1687562 9.28338402,26.948537 C12.2799701,26.1528658 13.1203202,25.0822356 13.1550982,21.9059616 C13.1827786,19.4177973 13.1607762,16.9289205 13.1607762,14.4400438 M0.412864552,14.210674 C0.414284063,11.662674 0.391571899,9.11253699 0.419252348,6.56453699 C0.461837656,2.68804384 2.22628888,0.798947945 6.05257872,0.474126027 C12.5503868,-0.0786410959 17.1716024,4.21100274 17.1652146,10.7793863 C17.1595366,15.1666192 17.1758609,19.5524274 17.1566976,23.9382356 C17.1382439,28.3404274 15.135315,30.1568658 10.7667722,30.4531945 C6.98306768,30.7103452 4.3782664,28.6225096 1.9175454,26.4050301 C0.977119872,25.5566466 0.588883822,23.780811 0.476032758,22.3846466 C0.257428181,19.6763726 0.412154797,16.9374685 0.412864552,14.210674" id="Fill-11" fill="#0C375A" mask="url(#mask-6)"></path>
                </g>
                <path d="M85.2452804,3.2714411 C92.2768244,4.05785205 96.2060287,8.23067397 96.69505,15.3183452 C97.069091,20.751989 96.8937815,26.2255233 96.9321082,31.6812493 C96.9562399,35.1809205 96.7149232,38.696263 96.9661765,42.178126 C97.3671881,47.7378521 93.6892371,48.6311123 89.4896161,48.0861808 C86.5327762,47.7029479 85.5007923,46.2818521 85.4816289,43.1910575 C85.4354948,35.9587836 85.4873069,28.7250849 85.4241387,21.4935233 C85.4078144,19.7255233 85.2161805,17.9390027 84.9010492,16.1973589 C84.4482255,13.6935233 82.8974105,11.8151123 80.4090091,11.5280438 C76.9248212,11.1255781 73.3810139,11.1904 69.862048,11.1782904 C68.4609914,11.1733041 67.5801853,12.0843726 67.3573222,13.4962082 C67.1919493,14.5447562 67.0116715,15.6054137 67.0067032,16.6617973 C66.9776032,23.0100712 67.021608,29.3576329 66.989669,35.7059068 C66.9761837,38.4576329 66.6369208,41.1651945 65.0236474,43.5165918 C63.0633037,46.3730301 60.0674274,47.2256877 56.8792074,47.4956603 C54.883376,47.6644822 52.8619934,47.5640438 50.8526767,47.5270027 C48.6481773,47.4864 47.4593375,46.4157699 47.2811889,44.1883178 C47.1981476,43.1461808 47.1520135,41.9622904 47.5622519,41.0604822 C47.9093222,40.2975781 48.2876217,39.4705644 49.6815807,39.2789479 C49.9236072,39.2454685 50.2579019,39.2476055 50.55316,39.2397699 C54.4071303,39.1457425 55.5980994,37.9604274 55.6399749,34.0397699 C55.6790115,30.3620164 55.7074017,26.682126 55.6257798,23.0057973 C55.5576434,19.9684274 56.2929497,17.3157151 58.3959541,15.0220164 C59.8928276,13.3886466 59.4478112,11.758126 57.3568726,10.9952219 C56.0367281,10.5129753 54.6037325,10.3512767 53.2395831,9.97872877 C51.1458055,9.40601644 50.4218553,7.78831781 50.8555157,4.79796164 C51.0876056,3.20020822 51.9726703,2.55626301 54.091999,2.54700274 C58.5258393,2.52848219 62.9589697,2.54201644 67.39281,2.54201644 C67.3977782,2.43872877 79.3344398,2.60968767 85.2452804,3.2714411" id="Fill-14" fill="#FFFFFF"></path>
                <path d="M37.1815155,42.5127781 C37.1637717,46.7383123 35.4255814,48.3097096 30.9172169,48.2242301 C27.088088,48.1508603 25.4549415,46.3251616 25.4755244,42.3824219 C25.5152707,34.8495452 25.5365633,27.3152438 25.4407464,19.7830795 C25.3946123,16.1124493 24.1355067,12.939737 20.3745143,11.6091068 C18.7967287,11.0506411 17.0244702,10.8989151 15.3302847,10.8419288 C11.906426,10.7272438 8.47546977,10.8248329 5.04735255,10.7927781 C2.43190494,10.7678466 1.40205026,9.72072329 1.34385034,7.14138082 C1.27926263,4.25075068 2.52985114,2.63732603 5.11690855,2.5846137 C9.37118073,2.49913425 13.6446163,2.31535342 17.8790153,2.61239452 C21.6648491,2.87738082 25.5152707,3.3696 29.1485071,4.42170959 C34.3602389,5.93184658 36.4433702,10.3376 36.8287672,15.3068055 C37.2170033,20.3130521 36.9146476,25.3734356 36.9146476,30.4110247 C37.0047865,30.4110247 37.1978399,38.4788603 37.1815155,42.5127781" id="Fill-16" fill="#FFFFFF"></path>
                <path d="M121.73734,25.4781479 C121.73734,31.1133808 121.508799,36.7614356 121.804767,42.3809973 C122.077313,47.5610521 119.09989,48.4635726 114.692311,48.0717918 C111.352913,47.7747507 110.441587,46.3522301 110.439458,42.9166685 C110.43378,31.5863671 110.426682,20.2567781 110.435909,8.92647671 C110.436619,7.92209315 110.488431,6.90702466 110.640319,5.91617534 C110.736136,5.29075068 110.961838,4.63612055 111.30394,4.10828493 C112.452323,2.33672329 115.752685,1.66927123 118.647066,2.55042192 C120.632251,3.15590137 121.716047,4.58981918 121.733081,6.97042192 C121.778506,13.139189 121.748696,19.3086685 121.748696,25.4781479 L121.73734,25.4781479 Z" id="Fill-18" fill="#FFFFFF"></path>
                <path d="M145.884983,14.8098849 C145.884983,17.2987616 145.906986,19.7876384 145.879305,22.2758027 C145.844527,25.4520767 145.004177,26.5227068 142.007591,27.3183781 C137.4027,28.5385973 134.574326,26.3845151 134.577165,21.6582137 C134.580004,16.8585425 134.556582,12.0581589 134.59207,7.25848767 C134.616911,3.77163836 135.740453,2.56067945 139.172119,2.29213151 C140.165067,2.21377534 141.182146,2.26791233 142.173674,2.38402192 C144.269581,2.62906301 145.748001,4.15059726 145.811879,6.27832329 C145.898469,9.11980274 145.867949,14.8098849 145.884983,14.8098849" id="Fill-20" fill="#FFFFFF"></path>
            </g>
        </g>
    </g>
</svg>